<?xml version="1.0" encoding="utf-8"?>
<!-- Generator: Adobe Illustrator 22.1.0, SVG Export Plug-In . SVG Version: 6.00 Build 0)  -->
<svg version="1.1" id="Layer_1" xmlns="http://www.w3.org/2000/svg" xmlns:xlink="http://www.w3.org/1999/xlink" x="0px" y="0px"
	 viewBox="0 0 350 350" style="enable-background:new 0 0 350 350;" xml:space="preserve">
<style type="text/css">
	.st0{fill:#3383FF;}
	.st1{fill:#A9FF6A;}
	.st2{opacity:0.21;enable-background:new    ;}
</style>
<g>
	<g id="Layer_1_1_">
		<ellipse id="_Ellipse_" class="st0" cx="175" cy="175" rx="175" ry="175"/>
		<path class="st1" d="M139.5,4.3c4-1.7,8.4-1.9,12.7-2c9,0,18,0.6,26.9,2l-0.3,5.9c-0.1,0.6,0,1.2,0.2,1.8c0.4,0.7,0.9,1.4,1.6,1.8
			l5.2,4c1.3,0.8,2.3,1.9,3,3.3c0.7,1.6,1,4.2,2.7,4.1c-0.3-1.5-0.2-3,0.1-4.4c0.4-1.5,1.7-2.5,3.2-2.6c1,0,2,0.7,3,0.6
			c0.8-0.2,1.6-0.4,2.4-0.7c1.7-0.2,3.4,0.4,4.5,1.7c1.1,1.3,2,2.7,2.8,4.1c3,4.5,7.3,8,12.4,9.9c4.7,5.8,12.3,8.3,19.6,9.6
			c3.2,0.6,7,1.3,8.4,4.3c0.7,1.5,0.6,3.3,1.2,4.8c0.7,1.3,1.5,2.6,2.4,3.8c2,3.7,1,8.3-2.4,10.9c-3.5,2.3-8.3,1.8-11.1-1.3
			c-2.4-2.8-3.2-7.2-6.6-8.5c-0.7-0.3-1.5-0.4-2.2-0.7c-1.8-0.8-3-2.8-4.9-3.3c-3.3-0.9-6.8,3.1-10,1.8c-1.9-0.8-2.7-3.2-4.5-4.2
			c-2.5-1.4-5.5,0.3-7.8,1.9c-1.1,0.6-2,1.6-2.6,2.7c-0.4,1-0.5,2-0.3,3.1c0.7,5.5,3.9,10.3,8.9,13.1c0.7,0.3,1.3,0.8,1.8,1.3
			c0.3,0.7,0.5,1.5,0.4,2.3l-0.4,8.3c-0.1,1.1,0,2.1,0.3,3.1c0.3,1,1.3,1.7,2.4,1.7c1.6-0.1,2.3-2.1,2.3-3.8c0-1.6-0.3-3.5,0.8-4.6
			s3.3-1,5-1.6c3-1.1,3.8-5.7,1.4-7.8c1.9-2.3,2.8-5.1,2.6-8c-0.1-0.6,0-1.1,0.2-1.6c0.5-0.7,1.6-0.6,2.4-0.2c3.3,1.3,5.8,4,8.1,6.6
			c1.6,1.7,3.2,3.6,3.4,5.9c0.1,1.7-0.3,4,1.3,4.6c1.8,0.7,5.5-2,6.1-0.2c2.1,5.4,4.3,11,8.7,14.6c2.5,2,5.7,3.4,7.1,6.3
			c1.4,3.3,0,7-3.2,8.7c-2,0.9-4.2,0.7-6.4,0.5c-2.8-0.3-5.7-0.5-8.1-2c-0.8-0.6-1.6-1-2.5-1.4c-1.1-0.3-2.3-0.3-3.5,0l-6.9,1.1
			c-0.9,0.1-2.1,1-1.4,1.7l13.1,2.2c-1.2,2.8-0.8,5.9,1,8.3c1.8,2.3,4.8,3.5,7.8,3.1c0.3,1.8-1.7,3.1-3.4,3.3
			c-1.8,0.2-3.6-0.1-5.2,0.5c-1.2,0.4-2.1,1.3-3.2,1.9c-1.1,0.5-2.7,0.6-3.4-0.4c-0.7-1.1-0.3-2.6,0.8-3.3c1.1-0.6,2.4-1,3.7-0.9
			c-3.3-2.2-7.7-1.1-11.5,0c-1.6,0.4-3.1,1.1-4.4,2.1c-1.3,1.1-1.7,2.9-0.9,4.5c-3.7,0-7.7,0-10.6,2.3c-1.1,0.9-2.1,2-3.4,2.3
			c-1.6,0.4-3.2-0.6-4.6-1.3s-3.4-1.1-4.6,0c-0.7,0.5-0.4,1.6,0.1,2.3s1.3,1.2,1.4,2.1c0,0.7-0.1,1.4-0.5,2c-0.7,1.6-0.8,3.3-0.3,5
			c-3.2-0.1-6.1,1.7-9.2,2.6s-6.5,0.9-9.8,1.7s-6.5,2.7-7.5,5.8c-1.1,3.7,1.3,7.8-0.2,11.3c-0.5,1.2-1.4,2.3-1.6,3.6
			c-0.2,1.6,0.5,3.7-0.9,4.6c-0.4,0.2-0.9,0.3-1.4,0.3c-1.7,0.1-3.4,0-5.1-0.4c2.4-1,3.7-3.5,3.1-6c-0.5-1.8-1.9-3.6-1-5.3
			c0.5-0.6,1-1.2,1.6-1.7c1.3-1.6,1.6-3.9,0.7-5.8c-0.9-1.8-2.2-3.4-3.7-4.8c-0.5-0.6-1.2-1.1-1.9-1.4c-1.1-0.3-2.4,0.3-3.5-0.1
			c-1.7-0.6-2.1-2.8-3.1-4.2c-1.8-2.4-5.4-2.1-8.3-1.6l2.8,2.9c-1.3,0.5-2.6-0.4-3.7-1.2c-5.2-4.1-10.9-8.3-17.6-8.4
			c-0.8,0-1.7,0.1-2.5,0.4c-0.9,0.4-1.6,1-2.2,1.7l-4.7,4.6c-1.4,1.3-2.7,2.7-3.7,4.3c-0.7,1.3-1.4,2.6-2.2,3.8
			c-1.2,1.5-3,2.5-4,4.2c-0.5,1.1-0.8,2.3-0.9,3.6l-0.5,4c-0.5,4.1-0.9,8.7,1.7,11.9c4-1.7,8.3,4,12.3,2.4c1-0.6,2-1.3,2.9-2.1
			c3.8-2.7,9.1-1.2,13.4,0.5c0.7,0.2,1.3,0.6,1.7,1.2c0.4,1,0,2.1-0.8,2.7c-0.8,0.7-1.8,1-2.6,1.7c-2.9,2.2-3,7.1-6.3,8.7
			c-1.2,0.4-2.5,0.7-3.8,0.9c-1.3,0.3-2.6,1.2-2.7,2.5c3.6,1.1,7.1,2.5,10.4,4.2c2.2,0.9,4.2,2.3,5.7,4.1c1.4,1.9,2,4.6,0.8,6.6
			c-1.1,1.8-3.4,2.7-4.6,4.4c-0.8,1.4-1.3,3-1.3,4.6c-0.4,3.5-0.9,7.4-1.3,10.9c-2.5-1.8-5.3-4-5.6-7.1c-0.1-1.3,0.2-2.6,0.1-3.9
			c-0.2-3.7-3.4-6.8-3-10.5c0.2-0.7,0.2-1.5-0.1-2.3c-0.3-0.4-0.6-0.6-1-0.8c-1.5-0.7-2.9-1.8-4.1-3c-0.8-1.1-1.3-2.4-2.2-3.5
			c-1.5-1.7-4-2.4-5.6-4c-1.8-1.9-2.2-4.6-2.6-7.2c-0.2-1.9-0.7-4.1-2.4-5.1c-1.2-0.6-2.7-0.4-4.1-0.3s-3.1-0.1-3.8-1.4
			c-0.3-0.7-0.5-1.4-0.6-2.1c-1-3.4-6.2-5.1-6.1-8.6c0.2-4.4-4.8-7.4-5.9-11.7c-0.4-1.9-0.1-3.9-0.9-5.6c-0.7-1.4-2.1-2.9-1.4-4.3
			c0.4-0.6,1-1.1,1.7-1.4c2.8-1.9,4.2-5.3,3.6-8.6c-0.4-1.4-0.8-2.8-1-4.2c-0.2-2.1,0.7-4.4-0.1-6.3c-0.4-0.6-0.7-1.3-0.9-2
			c-0.1-0.4-0.1-0.8,0-1.2l2.5-20.6c0.1-1.2,0.2-2.6-0.8-3.3c-1.6,1.5-3,3.3-4,5.3c-1.1,2.5-1.1,5.4-1.3,8.2
			c-0.4,5.9-1.8,11.8-4.1,17.3c0.5-3.1,0.1-6.2-1.2-9.1c1.4,0.6,2.8-1.2,2.7-2.7c-0.1-1.5-0.9-2.9-1-4.4c0-1.6,0.5-3.1,1.3-4.5
			c1.8-3.6,3.5-6.4,3.6-10.4c0.1-3.6,4.1-6.6,3.1-10c-0.4-1.5-1.7-2.6-2.3-4c-0.8-2-0.1-4.3,1-6.1c1.2-1.8,2.7-3.3,4-5
			c3.2-4.5,4.2-10.6,8.3-14.3c3.4-3.2,8.3-4,12.5-6c3.6-1.9,6.9-4.1,9.9-6.8c1.3-0.9,2.4-2.1,3.2-3.5c0.4-1.2,0.7-2.5,0.9-3.8
			c0.9-4.6,4.1-8.4,8.6-10.2c1.1-0.3,2.2-0.8,3.1-1.6c0.5-0.6,0.9-1.3,1.1-2c1.3-3.2,2.6-6.7,1.7-10.1c-4.6-1.8-9.3-3-14.2-3.7
			c4.3,0.1,8.6-0.6,12.6-2.1c0.6-0.2,1.1-0.5,1.5-1c0.3-1-0.2-2-1.2-2.3c-0.1,0-0.1,0-0.2,0c-1.1-0.2-2.1,0-3.1,0.4
			C138.7,4.8,139,4.4,139.5,4.3z M114.2,331.8c-2.1,0.7-5.1,1.3-6.5,2.8c1.2,1.9,5.6,2.8,7.7,3.7l8.9,3.7c2.2,1.1,4.6,1.8,7.1,2.2
			c4,0.4,8-1,11.9-1.8c11.5-2.3,23.4,0.7,35.1-0.3c1.9-0.1,3.9-0.6,5.6-1.4c1.7-1,2.9-2.6,4.6-3.7c3-2.1,6.9-2.2,10.6-2.7
			c9.5-1.2,18.5-5.1,27.4-8.9c5.5-2.4,11.2-4.8,15.2-9.3c2.4-2.7,4.3-6.1,7.7-7.5c2.1-0.8,4.5-0.7,6.7-1.3s4.4-2.4,4.1-4.7
			c-0.3-1.8-2.1-3-3.8-3.5c-1.8-0.5-3.7-0.7-5.2-1.6c-1-0.6-1.7-1.4-2.7-2.1c-2.6-2-6.1-2.3-9.3-3.1c-3.2-0.8-6.6-2.4-7.6-5.6
			c3.6-1.7,5.3-6.2,4.3-10.1c-1.1-3.8-4.2-6.8-8.2-7.9c-2-0.6-4.1-0.7-5.8-1.8s-2.9-3.1-4-4.9c-1.1-1.8-2.4-3.5-3.9-5.1
			c-5.7-6.3-13.2-10.4-20.6-14.5L175,232.4c-1.5-0.9-3.1-1.6-4.8-2c-6.5-1.1-12.9,6.1-18.9,3.5c0.8,7.1-4,13.6-9.5,18.2
			c-1.1,1-2.4,1.8-3.8,2.4c-1.4,0.5-2.9,0.5-4.4,1c-4.6,1.4-7.2,7.2-5.2,11.5c-1.2,1-2.9,0.2-4.3-0.4c-1.4-0.6-3.5-0.8-4,0.6
			c-0.2,0.9,0,1.8,0.5,2.5c2.9,6,4.9,12.4,6,19c0.8,5.1,1.4,10.8,5.2,14.3c2.2,2,5.2,3.1,6.5,5.7c1.6,3.2-0.3,7-2.5,9.9
			c-3.8,4.8-8.9,8.6-14.6,11C119.2,329.5,116.1,331.2,114.2,331.8L114.2,331.8z M162.8,180.1c0.6,0.8,1,1.7,1.3,2.6
			c0,0.2,0.1,0.5,0.2,0.7c0.4,0.5,1.1,0.6,1.7,0.8c1,0.4,1.8,1,2.4,1.8l3.4,3.7c0.2,0.2,0.4,0.5,0.6,0.7c0.2,0.7,0.2,1.5,0.1,2.3
			c0.1,1.1,0.8,2.1,2,2.5c-0.6,0.2-1.3,0.3-1.9,0.5c1.2,0.5,2.4,1.2,3.4,2c0.6,0.5,1.2,1,1.9,1.3c0.7,0.4,1.6,0.4,2.3,0
			c0.4-0.3,0.7-0.7,1.1-0.9c0.8-0.4,1.8-0.2,2.2,0.6c0.2-1.9-0.5-3.8-1.9-5.2c-1.4-1.3-2.9-2.5-4.5-3.5c-1.3-1.1-2.6-2.2-3.8-3.4
			l-8.3-7.9c-0.7-0.7-1.5-1.4-2.4-1.9c-0.8-0.4-1.7-0.7-2.7-0.9c-1.4-0.3-3.5-0.7-4.8,0c-1,0.5-1.5,1.6-0.6,2.4s2.4,0.8,3.5,0.9
			C159.7,179.3,161.8,178.5,162.8,180.1L162.8,180.1z M170.8,200.6c-1.1-0.4-2-1.1-3.1-1.6c-0.8-0.4-1.5-0.3-1.4,0.8
			c0.1,1.3,1.9,2.8,2.9,3.5c0.8,0.6,1.8,0.9,2.8,1c0.3,0,0.6-0.1,0.8-0.3c0.1-0.2,0.2-0.5,0.2-0.7
			C173,201.4,172.2,201.1,170.8,200.6L170.8,200.6z M186.5,202.6c0.2,0.7,0.4,1.4,0.7,2c0.2,0.8,0.1,1.7-0.1,2.5
			c-2.2,0.1-4.3-1.4-6.5-1.4c0,0.4,0.2,0.8,0.5,1l3.6,3.4c0.5,0.6,1.3,1.1,2.1,1.4c0.8,0.1,1.6,0,2.4-0.2c3.8-0.5,7.6,2.5,11.3,1.6
			c0-2-0.9-3.9-2.4-5.2c-0.9-1-2-1.8-3.2-2.5c-1.7-0.9-3.5-1.7-5.3-2.3C188.7,202.5,186.3,201,186.5,202.6L186.5,202.6z M206,214
			c-0.9-0.1-1.9-0.1-2.8,0.3c-0.1,0-0.3,0.1-0.3,0.2c0,0.1,0,0.2,0,0.3c0.2,0.4,0.6,0.7,1,0.9c1.5,0.8,3.2,1.5,4.9,2
			c0.2,0,0.4,0.1,0.5-0.1c0.1-0.2,0-0.2-0.1-0.3l-0.7-1C207.8,215.3,206.9,214.5,206,214L206,214z"/>
		<path class="st2" d="M252.5,18.1c38.9,32.1,63.6,80.7,63.6,135c0,96.7-78.3,175-175,175c-26.9,0-53.5-6.2-77.5-18
			c31,25.8,70.5,40,111.4,40c96.6,0,175-78.4,175-175C350,106.1,310.2,46.6,252.5,18.1z"/>
	</g>
</g>
</svg>
