<?xml version="1.0" encoding="utf-8"?>
<!-- Generator: Adobe Illustrator 22.1.0, SVG Export Plug-In . SVG Version: 6.00 Build 0)  -->
<svg version="1.1" id="Layer_1" xmlns="http://www.w3.org/2000/svg" xmlns:xlink="http://www.w3.org/1999/xlink" x="0px" y="0px"
	 viewBox="0 0 350 350" style="enable-background:new 0 0 350 350;" xml:space="preserve">
<style type="text/css">
	.st0{fill:#EFE0D1;}
	.st1{fill:#AE8F5E;}
	.st2{fill:#DD9B4B;}
	.st3{fill:#D19847;}
	.st4{fill:#F2DE87;}
	.st5{fill:#A98A5A;}
	.st6{fill:#E4843E;}
	.st7{fill:#F2B563;}
	.st8{fill:none;stroke:#FF4A3F;}
	.st9{fill:#FFAB59;}
	.st10{opacity:0.35;enable-background:new    ;}
</style>
<title>jupiter</title>
<g id="Layer_1_1_">
	<path class="st0" d="M66.3,184c14.1,0.2,27.5,6.8,41.6,7.3c15,0.5,29.5-6,44.5-6.7c13.9-0.7,27.6,3.6,41.4,5.1
		c13.9,1.5,27.8,0.3,41.7,0.5c14.8,0.2,29.6,2,44.3,3.9l68,8.4c0.8-5.3,1.4-10.7,1.8-16.1c-2.9-0.1-5.8-0.1-8.7,0.1
		c-11.4,0.5-23.1,2.6-33.9-1c-5.7-1.9-10.8-5.3-16.5-6.9c-9.6-2.7-19.8-0.2-29.8-0.1c-10.3,0.2-20.4-2.1-30.6-4
		c-19.4-3.5-39.2-5.4-58.9-5.5c-9.8-0.1-19.6,0.3-29.2-1.3c-10.1-1.7-20-5.5-30.3-5c-8.8,0.5-17.1,4.1-25.7,5.9
		c-16.3,3.5-33.3,0.7-50,0c-12-0.4-23.9,0.3-35.7,2.2c0,1.4-0.1,2.9-0.1,4.3c0,4.8,0.3,9.6,0.7,14.3c7.4,0.2,15.1,1.5,22.4,1.4
		C37.8,190.6,51.7,183.8,66.3,184z"/>
	<path class="st0" d="M25.3,126.5c5-0.1,9.9,1.3,14.8,2.1c17.5,2.9,35.4-2,53.1-0.8c5,0.3,9.9,1.1,14.7,2.4c3.7,1,7.4,2.2,11.2,2.6
		c10,1,19.9-4,29.8-2.4c4.6,0.8,9,2.9,13.6,3.1c6.3,0.3,12.1-3.1,18-5.3c14.9-5.3,31.4-3.5,44.7,4.9c4.7,3,9.3,6.9,14.9,6.9
		c5.6,0,10.6-4.1,16.2-4.5c6.9-0.4,12.8,4.8,19.5,6.4c13.6,3.1,28.1-9,41-3.7c3.1,1.3,5.7,3.4,8.9,4.6c4.6,1.7,9.7,0.9,14.6,0.8
		c2.3,0,4.5,0.1,6.8,0.3c-1.8-10.2-4.5-20.2-8.1-29.9c-4.3,1.4-8.7,2.4-13.2,3c-14.4,1.7-28.8-3.5-43.3-3.4
		c-12.7,0.1-25.2,4.2-37.8,3.3c-10.7-0.8-20.9-5.1-31.6-5.9c-6.4-0.5-12.9,0.4-19.3,0.5c-8.3,0.1-16.4-1.2-24.6-2.3
		c-11.2-1.5-22.5-2.8-33.8-4l-8.8-1c-8.3-0.9-16.5-1.8-24.8-1.5c-11.6,0.4-23.1,3.1-34.7,4c-13.9,1.1-27.9-0.4-41.3-4.4
		c-2.1-0.7-4.2-1.1-6.4-1.2c-1.1,0-2.2,0.2-3.3,0.6c-4.5,9.7-8.1,19.8-10.8,30.1l6.2-2C16.1,128.1,20.6,126.6,25.3,126.5z"/>
	<path class="st1" d="M25.9,102.2c13.3,4,27.4,5.5,41.3,4.4c11.6-0.9,23-3.6,34.7-4c8.3-0.3,16.5,0.6,24.8,1.5l8.8,1
		c11.3,1.2,22.5,2.5,33.8,4c8.2,1.1,16.4,2.4,24.6,2.3c6.4-0.1,12.9-0.9,19.3-0.5c10.7,0.8,20.9,5.1,31.6,5.9
		c12.6,0.9,25.2-3.2,37.8-3.3c14.5-0.1,28.9,5.1,43.3,3.4c4.5-0.6,8.9-1.6,13.2-3c-2.4-6.3-5.1-12.5-8.2-18.6
		c-5,0.3-10.3,1.5-15.3,1.1c-4.7-0.3-9.1-1.9-13.8-2.7c-7.7-1.3-15.6-0.3-23.4,0.3c-19.7,1.6-39.5,0.6-59.3-0.4l-52.5-2.6
		c-7.5-0.4-15-0.8-22.2-2.7c-2.8-0.7-5.5-1.7-8.4-2.2c-6.8-1.2-13.7,0.4-20.6,1.3c-26.7,3.5-54-3.2-80.6,0.7
		c-4.4,0.6-8.8,1.6-13.2,2.4c-1.9,3.5-3.8,7.1-5.5,10.8c1.1-0.3,2.2-0.5,3.3-0.6C21.6,101.1,23.8,101.5,25.9,102.2z"/>
	<path class="st2" d="M35.8,168.6c16.7,0.6,33.7,3.5,50,0c8.6-1.9,16.9-5.5,25.7-5.9c10.3-0.5,20.2,3.3,30.3,5
		c9.6,1.6,19.5,1.3,29.2,1.3c19.8,0.1,39.5,2,58.9,5.5c10.1,1.8,20.3,4.1,30.6,4c10-0.2,20.2-2.6,29.8,0.1c5.7,1.6,10.8,5,16.5,6.9
		c10.8,3.6,22.5,1.5,33.9,1c2.9-0.1,5.8-0.1,8.7-0.1c0.2-3.8,0.4-7.6,0.4-11.5c0-10.4-1-20.8-2.8-31c-2.2-0.3-4.5-0.4-6.8-0.3
		c-4.9,0.1-10,0.9-14.6-0.8c-3.1-1.1-5.8-3.3-8.9-4.6c-12.9-5.3-27.4,6.9-41,3.7c-6.7-1.6-12.6-6.8-19.5-6.4
		c-5.6,0.3-10.6,4.5-16.2,4.5c-5.6,0-10.2-3.9-14.9-6.9c-13.2-8.4-29.8-10.2-44.7-4.9c-5.9,2.2-11.7,5.5-18,5.3
		c-4.7-0.2-9-2.4-13.6-3.1c-9.9-1.6-19.8,3.3-29.8,2.4c-3.8-0.4-7.5-1.6-11.2-2.6c-4.8-1.3-9.8-2.1-14.7-2.4
		c-17.7-1.2-35.6,3.7-53.1,0.8c-4.9-0.8-9.8-2.2-14.8-2.1c-4.7,0.1-9.2,1.6-13.7,3.1l-6.2,2c-3.2,12.8-5,26-5.3,39.2
		C11.9,168.9,23.9,168.2,35.8,168.6z"/>
	<path class="st3" d="M115.4,87.6c6.8-0.9,13.8-2.5,20.6-1.3c2.9,0.5,5.6,1.5,8.4,2.2c7.2,1.9,14.7,2.3,22.2,2.7l52.5,2.6
		c19.7,1,39.6,2,59.3,0.4c7.8-0.6,15.7-1.7,23.4-0.3c4.6,0.8,9.1,2.4,13.8,2.7c5,0.3,10.3-0.8,15.3-1.1
		c-5.4-10.5-11.8-20.5-19.3-29.8c-0.3-0.1-0.6-0.1-0.8,0.1c-15.2,10-36.4-0.5-53.5,5.7c-2.2,0.9-4.5,1.8-6.8,2.5
		c-2.6,0.5-5.4,0.7-8.1,0.6c-15.8-0.2-31.6-0.4-47.4-1c-20.9-0.8-41.7-2.2-62.5-3.7L98,67.3c-19.9-1.4-40-2.8-59.9-1.4
		C31.9,73.7,26.4,82,21.6,90.7c4.4-0.9,8.8-1.8,13.2-2.4C61.5,84.4,88.8,91.1,115.4,87.6z"/>
	<path class="st0" d="M194.4,56.5c9,0.3,18,0.7,26.9,1.5c8.2,0.8,16.3,2,24.5,2.7c13.1,1.1,26.2,0.7,39.4,0.4l22-0.6
		c-8-9.3-17-17.7-26.8-25.1c-6.9,1.7-13.5,4.7-20.5,5.8c-17.1,2.8-33.9-5.3-51.1-7.8c-23.2-3.4-46.7,3.8-70.1,2.5
		c-12-0.7-23.7-3.5-35.6-4.9c-8.7-1-17.6-1.3-26.4-0.8C66.7,37,57.4,44.9,49,53.6C97.5,53,146,54.8,194.4,56.5z"/>
	<path class="st2" d="M103.1,31c11.9,1.4,23.6,4.3,35.6,4.9c23.4,1.3,46.9-5.9,70.1-2.5c17.2,2.5,34,10.7,51.1,7.8
		c7-1.2,13.6-4.1,20.5-5.8C221.2-9.8,138.3-11.9,76.7,30.2C85.5,29.7,94.4,29.9,103.1,31z"/>
	<path class="st4" d="M98,67.3l34.3,2.4c20.8,1.5,41.7,2.9,62.5,3.7c15.8,0.6,31.6,0.8,47.4,1c2.7,0.1,5.4-0.1,8.1-0.6
		c2.3-0.7,4.6-1.5,6.8-2.5c17.2-6.1,38.3,4.4,53.5-5.7c0.3-0.1,0.6-0.1,0.8-0.1c-1.4-1.7-2.8-3.4-4.3-5.1l-22,0.6
		c-13.1,0.3-26.3,0.7-39.4-0.4c-8.2-0.7-16.4-1.9-24.5-2.7c-9-0.9-17.9-1.2-26.9-1.5c-48.4-1.8-96.9-3.6-145.4-3
		c-3.8,3.9-7.4,8.1-10.9,12.4C58,64.6,78.1,66,98,67.3z"/>
	<path class="st2" d="M253.5,272.6c-31.7-5.2-63.8-9.1-95.9-7.2c-19.7,1.2-40.8,4.3-58.2-5c-2.4-1.3-4.7-2.8-7.4-3.3
		c-6.9-1.3-12.9,4.1-19,7.4c-13.7,7.4-30.1,4.5-45.9,4.1c8.6,13.6,19.1,26,31.2,36.9c6.8-2.3,14.2-2.7,21.5-2.3
		c9.2,0.5,18.3,2.2,27.4,1.9c8.9-0.2,17.8-2.3,26.7-2.5c18.1-0.5,35.5,6.4,53.6,7.6c12.5,0.8,25-1.1,37.4,0.3
		c12.6,1.3,24.6,5.9,37.1,8.1c3.7,0.6,7.5,1.1,11.3,1.3c18-12.3,33.6-27.8,45.8-45.6c-8.5,0.4-17.1,2-25.6,2.3
		C280,277.1,266.8,274.7,253.5,272.6z M185.6,277.8c-0.4,0.5-1,0.8-1.7,0.9c-3.8,0.7-7.7,1-11.5,0.9l-11.6,0.1
		c-1.7,0.1-3.3-0.1-4.9-0.5c-3.3-1.1-5.5-4.2-8.6-5.7c-1.1-0.6-2.7-1.5-2.3-2.7c3.9-0.2,7.9,0.1,11.7,1c-0.8-0.3-1.6-0.7-2.3-1.1
		c0.8,0.4,1.5,0.8,2.3,1.1c1.3,0.3,2.5,0.7,3.8,1.1c5.5,1.1,11.6,0.4,17.2-0.1c1.7-0.2,3.4-0.1,5,0.3c1.7,0.5,2.9,1.9,3.1,3.6
		C185.9,277.1,185.8,277.5,185.6,277.8L185.6,277.8z"/>
	<path class="st5" d="M182.8,273.1c-1.6-0.4-3.3-0.6-5-0.3c-5.6,0.4-11.7,1.1-17.2,0.1c0.4,0.1,0.8,0.2,1.2,0.4
		c-0.4-0.2-0.8-0.2-1.2-0.4c-1.3-0.2-2.6-0.6-3.8-1.1c-3.8-0.9-7.8-1.2-11.7-1c-0.4,1.2,1.1,2.1,2.3,2.7c3.1,1.6,5.3,4.7,8.6,5.7
		c1.6,0.4,3.3,0.6,4.9,0.5l11.6-0.1c3.9,0.1,7.7-0.2,11.5-0.9c0.7-0.1,1.3-0.4,1.7-0.9c0.2-0.3,0.3-0.7,0.2-1.1
		C185.6,275,184.4,273.6,182.8,273.1z"/>
	<path class="st6" d="M291,214.1c-18.9-1.9-37.6-5.4-56.2-8.8c0,6.5,4.8,11.8,9.3,16.5c1.7,2.3,4.7,3.5,7.7,3
		c7.4-0.1,14.7,0.2,22.1,1.1c4.2,0.4,8.3,1.2,12.3,2.3c3.3,1,6.5,2.5,9.9,3.3c6.4,1.6,13,1.1,19.6,1.2c8,0.2,15.9,1,23.8,2.2
		c2.2-6.1,4.1-12.4,5.6-18.7C327,216.4,309,215.7,291,214.1z"/>
	<path class="st7" d="M279.7,194.1c-14.7-1.8-29.5-3.6-44.3-3.9c-13.9-0.2-27.8,1-41.7-0.5c-13.8-1.5-27.5-5.8-41.4-5.1
		c-15,0.7-29.5,7.2-44.5,6.7c-14.1-0.5-27.5-7.1-41.6-7.3c-14.6-0.2-28.5,6.6-43.1,6.9c-7.3,0.2-15.1-1.2-22.4-1.4
		c0.4,4.5,0.9,8.9,1.6,13.3c15-0.6,30.1-0.6,45.1,0.2c20.4,1,40.9,3.1,61.2,1.3c16.3-1.4,33-5.3,48.6-0.6c3.7,1.1,7.9,3.7,7.4,7.6
		c-2.7,1.6-6.1,1-9.3,1.1s-6.9,1.4-7.4,4.5c-0.2,1.3,0.2,2.7-0.1,4c-0.6,2.6-3.6,3.6-6.2,4.1c-23.8,4.7-48.4,1.4-72.7,0.7
		c-8.3-0.2-16.7-0.2-25-0.1l-36.3,0.3c4.5,15,11.1,29.3,19.6,42.6c15.8,0.4,32.2,3.4,45.9-4.1c6.1-3.3,12.2-8.8,19-7.4
		c2.7,0.5,5,2.1,7.4,3.3c17.4,9.3,38.5,6.2,58.2,5c32-1.9,64.2,2.1,95.9,7.2c13.2,2.2,26.5,4.5,39.9,3.9c8.6-0.4,17.1-1.9,25.6-2.3
		c8.4-12.2,15.3-25.4,20.3-39.3c-7.9-1.3-15.8-2-23.8-2.2c-6.6-0.1-13.2,0.4-19.6-1.2c-3.4-0.9-6.6-2.3-9.9-3.3
		c-4-1.1-8.1-1.9-12.3-2.3c-7.3-0.8-14.7-1.2-22.1-1.1c-2.9,0.5-5.9-0.7-7.7-3c-4.5-4.7-9.2-10-9.3-16.5c18.6,3.4,37.3,6.9,56.2,8.8
		c17.9,1.7,36,2.4,54,2.1c1-4.5,2-9.1,2.8-13.7L279.7,194.1z M235.1,234.9c-0.1,1.9-0.4,3.8-1.7,5.2c-1,0.9-2.1,1.5-3.3,1.9
		l-13.7,5.3c-3.2,1.2-6.4,2.4-9.8,2.6c-5.7,0.3-11.2-2.5-16.9-2.7c-3.9-0.1-7.8,1-11.7,0.8c-7.8-0.3-12.3-5.6-17.2-10.8
		c-6.3-6.6,0.7-11,5.2-16.3c1.6-1.9,2.8-4.1,4.3-6c3.8-5.1,9.5-8.5,15.8-9.6c3.9-0.6,8-0.3,11.8-1.2s7.7-3,11.7-3
		c4,0.1,7.7,2.1,10.8,4.5C229.3,212.6,235.7,223.6,235.1,234.9L235.1,234.9z"/>
	<path class="st6" d="M68.8,225.7c24.3,0.7,48.8,4.1,72.7-0.7c2.6-0.5,5.6-1.5,6.2-4.1c0.3-1.3-0.1-2.7,0.1-4
		c0.5-3.1,4.3-4.5,7.4-4.5c3.2-0.1,6.5,0.5,9.3-1.1c0.5-3.8-3.7-6.5-7.4-7.6c-15.6-4.7-32.3-0.9-48.6,0.6
		c-20.4,1.8-40.8-0.3-61.2-1.3c-15-0.7-30.1-0.8-45.1-0.2c1.2,7.8,3,15.6,5.3,23.2l36.3-0.3C52.2,225.5,60.5,225.4,68.8,225.7z"/>
	<path class="st8" d="M156.8,271.8c1.2,0.5,2.5,0.8,3.8,1.1C159.4,272.4,158.1,272.1,156.8,271.8z"/>
	<path class="st5" d="M224.9,310.4c-12.4-1.3-25,0.6-37.4-0.3c-18-1.2-35.5-8.1-53.6-7.6c-8.9,0.2-17.8,2.3-26.7,2.5
		c-9.2,0.3-18.3-1.4-27.4-1.9c-7.2-0.4-14.7-0.1-21.5,2.3c31,27.8,71.9,44.7,116.8,44.6c35.2,0,69.5-10.6,98.2-30.2
		c-3.8-0.2-7.5-0.7-11.3-1.3C249.5,316.3,237.5,311.7,224.9,310.4z"/>
	<path class="st9" d="M220.4,205.7c-3.1-2.4-6.8-4.5-10.8-4.5s-7.7,2.1-11.7,3c-3.9,0.9-7.9,0.5-11.8,1.2
		c-6.4,1.1-12.1,4.5-15.8,9.6c-1.5,2-2.7,4.2-4.3,6c-4.5,5.2-11.5,9.7-5.2,16.3c5,5.2,9.4,10.5,17.2,10.8c3.9,0.1,7.8-1,11.7-0.8
		c5.7,0.2,11.2,3,16.9,2.7c3.4-0.2,6.6-1.4,9.8-2.6l13.7-5.3c1.2-0.4,2.4-1,3.3-1.9c1.3-1.3,1.6-3.3,1.7-5.2
		C235.7,223.6,229.3,212.6,220.4,205.7z M215.3,240.8c-13,5.5-36.3,5.6-39-12.2c-2.2-14.5,21.5-20.3,30-11.6l12.7,12.9
		c0.7,0.7,1.3,1.4,1.8,2.3C222.3,235.6,218.8,239.3,215.3,240.8z"/>
	<path class="st6" d="M219,229.8l-12.7-12.9c-8.5-8.7-32.3-3-30.1,11.6c2.7,17.9,26,17.8,39,12.2c3.5-1.5,7.1-5.2,5.5-8.6
		C220.3,231.3,219.7,230.5,219,229.8z"/>
	<path class="st10" d="M252.4,17.8C291.3,50,316,98.5,316,152.9c0,96.6-78.3,175-174.9,175c-26.9,0-53.5-6.2-77.5-18.1
		c31,25.8,70.5,40,111.4,40c96.6,0,175-78.4,175-175C349.9,106,310.2,46.4,252.4,17.8z"/>
</g>
</svg>
