<?xml version="1.0" encoding="utf-8"?>
<!-- Generator: Adobe Illustrator 22.1.0, SVG Export Plug-In . SVG Version: 6.00 Build 0)  -->
<svg version="1.1" id="Layer_1" xmlns="http://www.w3.org/2000/svg" xmlns:xlink="http://www.w3.org/1999/xlink" x="0px" y="0px"
	 viewBox="0 0 350 350" style="enable-background:new 0 0 350 350;" xml:space="preserve">
<style type="text/css">
	.st0{fill:#FF4A3F;}
	.st1{fill:#D63139;}
	.st2{opacity:0.35;enable-background:new    ;}
</style>
<title>mars</title>
<g>
	<g id="Layer_1_1_">
		<ellipse class="st0" cx="175" cy="175" rx="175" ry="175"/>
		<path class="st1" d="M332.7,234.8c1.6-0.8,2.8-3,3.1-4.7c0.9-5.4,2.3-10.8,3.6-16.2c2.8-12.3,4.2-24.8,4.1-37.4c0-0.2,0-0.4,0-0.6
			C343.4,196,339.7,215.9,332.7,234.8z"/>
		<path class="st1" d="M46.1,115.6c4.6,7.1,3.2,17.7,9.5,23.3c8.8,7.8,23.9-0.9,34,5c4.7,2.7,7.4,8.1,12,11.1
			c5.8,3.8,13.3,2.9,20.2,2.9c15.5-0.1,30.7,4.6,43.5,13.3c1.9,1.3,3.7,2.7,6,3.1c1.9,0.2,3.9,0.1,5.7-0.4l43.2-8.8
			c6.2-1.3,13.6-3.5,15.2-9.6c1.6-6.1-4.4-12.3-10.7-13.3c-6.3-1.1-12.7,1.1-18.9,2.8c-6.2,1.7-13.1,2.8-18.8-0.3
			c-2.6-1.4-4.6-3.6-6.6-5.8l-16-17.2c-2.5-2.6-4.8-7.3-1.8-9.4c1.3-0.9,3.1-0.7,4.7-0.4c10.2,2.1,19.7,6.8,29.6,10
			c27.2,8.4,56.8,4.4,80.9-10.8c2.4-1.5,4.9-3.4,5.7-6.1c1.4-4.9-3.3-9.4-8-11.3c-4.7-1.8-10.1-2.4-14-5.6s-5.4-8.6-8.6-12.6
			c-8-9.7-23.5-8.3-33.7-15.5c-5.3-3.7-11.5-9.9-16.9-6.3c-3.9,2.6-3.3,8.5-2.3,13.1c1.6,7.1,3.2,14.2,4.8,21.3
			c-21.8-14.6-47.5-22.4-73.7-22.4c-3.1,0-6.3,0.1-9.1-1.2c-2.8-1.3-5-4.6-3.9-7.5c1.2-3.2,5.3-4.1,7.6-6.7
			c2.7-3.1,2.1-8.1-0.3-11.4c-2.4-3.3-6.3-5.3-10-7c-7.1-3.2-14.4-5.8-21.9-7.7c-33,17.5-59.4,45.2-75.1,79.1
			C28.4,106.1,40.5,106.9,46.1,115.6z"/>
		<path class="st1" d="M189.7,13.9c2.9,4.4,5.3,9.4,9.6,12.6c3.4,2.5,7.6,3.6,10.9,6.2c2.6,2.2,4.5,5.4,7.5,7.1
			c4.6,2.5,10.3,0.7,15.6,1c6.8,0.4,12.7,4.5,18.8,7.4c12.1,5.6,25.7,6.8,38.6,3.5c-29.4-28.2-68-44.9-108.7-47
			C185,7.5,187.5,10.6,189.7,13.9z"/>
		<path class="st1" d="M283.3,239.2c-5.4-4.6-13.4-4.9-20.3-3.1c-6.9,1.8-13.1,5.4-19.7,8.1c-22.3,9.2-47.5,7.3-71.5,4.5
			c-11.8-1.4-23.6-3-35.4-4.8c-5.6-0.9-11.3-1.8-16.3-4.6c-8.2-4.6-13.1-13.6-21.1-18.7c-5.5-3.5-12-4.8-18.4-5.9
			c-7.1-1.2-15.4-1.8-20.3,3.6c-4.6,5-3.6,13.3,0.2,19c3.8,5.7,9.8,9.4,15.3,13.5c9.1,6.7,17.4,14.6,24.5,23.4
			c1.9,2.3,3.7,4.7,6.2,6.2c2.9,1.7,6.3,2.1,9.6,2.4l40.6,4c7.4,0.7,14.9,1.5,21.8,4.2c-0.7,5.6-7.1,8.8-12.7,9.3
			c-5.7,0.5-11.6-0.4-16.8,1.9c-2.5,1-4.6,2.7-7,3.8c-7.4,3.4-16,0.9-24.2,0.6c-8-0.4-27,5.8-28.1,13.5l6,6
			c29.9,17.9,55.7,17.8,91.9,17.9c5.6-0.7,11.3-2.2,14.2-6.8c1.5-2.4,2-5.3,3.3-7.8c1.2-2,2.6-3.8,4.2-5.4
			c19.6-20.8,41.7-39.1,65.7-54.7c4.5-2.9,9.3-6,11.9-10.7C290.2,252,288.7,244.1,283.3,239.2z"/>
		<path class="st1" d="M23.5,209.9c0.8-3.4-0.1-6.9,0.6-10.4c1.5-7.8,10.7-11.8,18.6-11s15,4.9,22.4,7.8c13.9,5.3,29,6,43.4,2.1
			c-0.4-6.9-1.6-14.7-7-19c-7.2-5.6-18.3-2.7-25.9-7.7c-4.7-3-7.3-8.5-11.7-11.9c-11.5-8.9-28.4-0.2-42.7-3.3
			c3.5-4.7,0.7-11.5-3-15.9c-3.3-3.9-7.5-7.6-9-12.4c-8.1,28.6-8.7,58.8-1.5,87.6c1.7,1.3,3.8,2,5.9,2
			C18.1,217.8,22.2,214.6,23.5,209.9z"/>
		<path class="st1" d="M334,120.5c-3-8.7-6.8-17.1-11.2-25.2c-2.3-4.2-3.6-8.6-8.4-4.6c-3.3,2.9-5.2,7-5.1,11.4
			c0.1,3.1,1.1,6.1,1.5,9.2c1,7.8-1.7,15.5-7.3,21c2.8,1.3,5.7,2.6,7.9,4.8c2.2,2.1,3.9,5.2,3.4,8.2c-0.6,4.9-5.7,7.7-10.2,9.5
			c-10,4-20.6,6.9-29.8,12.6c-1.1,0.8-2.3,1.4-3.5,1.8c-1.9,0.6-4,0.2-5.9-0.1c-4.4-0.8-9-1.4-13.3-0.2c-4.8,1.3-8.7,4.6-12.7,7.5
			c-13.8,9.9-31,15.8-41.7,29.1c-0.9,1.2-1.8,3-0.7,4c0.4,0.3,0.8,0.5,1.2,0.6c11.4,3.2,23.4-0.1,34.7-3.3l44.3-12.6
			c2.5-0.7,5.1-1.5,7.7-1.1c4,0.5,7.4,3.4,9.8,6.7c4.1,5.9,5.6,13.3,8.7,19.7c3.2,6.5,9.3,12.6,16.5,11.8c2.4-0.3,5.1-1.2,7,0.3
			c0.7,0.7,1.3,1.4,1.9,2.2c1.5,1.5,2.8,1.6,4,1C346.6,198.1,347.1,157.6,334,120.5L334,120.5z"/>
		<path class="st2" d="M252.4,18.1c40.3,33.2,63.7,82.7,63.6,135c0,96.6-78.4,175-175,175c-26.9,0-53.4-6.2-77.5-18.1
			c31.3,25.9,70.7,40.1,111.4,40c96.7,0,175-78.3,175-175C350,108.4,312.1,47.6,252.4,18.1z"/>
	</g>
</g>
</svg>
