<?xml version="1.0" encoding="utf-8"?>
<!-- Generator: Adobe Illustrator 22.1.0, SVG Export Plug-In . SVG Version: 6.00 Build 0)  -->
<svg version="1.1" id="Layer_1" xmlns="http://www.w3.org/2000/svg" xmlns:xlink="http://www.w3.org/1999/xlink" x="0px" y="0px"
	 viewBox="0 0 350 350" style="enable-background:new 0 0 350 350;" xml:space="preserve">
<style type="text/css">
	.st0{fill:#9D9D9D;}
	.st1{fill:#767676;}
	.st2{opacity:0.35;enable-background:new    ;}
</style>
<title>mercury</title>
<g>
	<g id="Layer_1_1_">
		<ellipse class="st0" cx="174.9" cy="175" rx="174.9" ry="175"/>
		<path class="st1" d="M258.3,317.8c2.8,2.3,6,4.2,9.4,5.4c-65.8,41.3-151,34.2-209.1-17.5c58.5,2.6,117.3,19.6,174.2,6.5
			c5.9-1.4,12.3-3,17.6-0.4C253.5,313.2,255.7,315.7,258.3,317.8z"/>
		<path class="st1" d="M4,148.3c2.3-12.8,6.1-25.3,11.2-37.2c0.7,0.1,1.5,0.2,2.2,0.2c5.6,0.6,11.8,1.1,16.4-2.3
			c1.8-1.5,3.4-3.3,4.7-5.3c5.2-7.5,9.9-15.4,14.1-23.6c-6.2-0.5-12.4-1.2-18.5-2.2c8.6-12.1,18.8-23,30.3-32.4c0.1-0.1,0.1,0,0.1,0
			c13.1,1.4,26.2,2.3,39.1,0.2c9.3-1.5,18.3-4.5,27.7-6.2c12.4-2.2,25-1.8,37.5-2.1c23.6-0.5,46.9-3.4,70.3-6.3
			c6.3-0.8,13.3-2.2,18.5-5.4c11.6,6.1,22.5,13.5,32.3,22.1C232,56.3,173.7,61.9,115.2,64.5c-6.3,0.3-12.7,0.6-18.3,3.3
			c-5.6,2.7-10.3,8.4-9.7,14.7c0.5,5.8,5.6,10.4,11.2,12.3c5.6,1.9,11.7,1.5,17.5,1.2c63.7-3.5,127.5-3.1,191.1,1.1
			c7.5,0.5,15.3,1,22.5-0.3c7.2,13.3,12.7,27.4,16.2,42.1c-2.6,0.4-5.3,0.6-8,0.5c-8.3-0.4-16.3-3-24.3-5.1
			c-62.3-16.1-127.6,1.5-191.8,5.8c-23.4,1.5-46.9,1.3-70.3-0.7c-6.9-0.6-13.9-1.3-20.5,0.3c-5.3,1.3-10.1,3.9-15.2,5.7
			C11.9,146.8,8,147.8,4,148.3z"/>
		<path class="st1" d="M341,224.4c-4.5,15.5-11.2,30.4-19.8,44c-12.5,1.5-25.4,4.5-36.4-0.8c-5.9-2.8-10.5-7.7-16.6-9.8
			c-10.4-3.6-21.5,1.9-32.5,2.9c-15.5,1.4-30.8-6.3-46.3-5c-17.1,1.5-34.3,13.9-50.1,7.2c-2.7-1.2-5.2-2.9-8-3.9
			c-4-1.6-8.3-1.7-12.7-1.8c-31.5-0.6-63,0.3-94.4,2.9C15.1,243.9,8.7,226.3,5.3,208c21.8,0,43.5,0,65.3,0.1
			c18.1,0,36.5,0.1,53.8,5.4c8.5,2.6,16.7,6.6,25.5,7.3c6.9,0.6,13.9-0.8,20.7-2.2c27.7-5.6,56.6-11,83.8-3.4c3.6,1,7.2,2.2,11,2.5
			c4,0.3,7.9-0.5,11.9-1C298.5,214.6,320,224,341,224.4z"/>
		<path class="st1" d="M0.3,178.2c0-4.7,0.2-9.3,0.6-13.8c19.6-1.7,39.2-3.3,58.8-4.9c27.6-2.3,55.2-4.7,82.9-4.6
			c25.6,0,51.3,2.1,76.7-0.9c8-1,16-2.4,24-1.5c11.8,1.3,22.7,7.7,34.5,8.6c5.8,0.4,11.9-0.5,17.5,1.5c5.6,2,9.9,8.7,6.9,13.8
			c-2.6,4.2-8.5,4.5-13.5,4.4c-37.9-0.8-75.8,3.2-112.6,12.1c-7.4,1.8-14.8,3.8-22.4,4.5c-9.3,1-18.7-0.1-28-0.8
			c-41.5-3.7-83.2-4.2-124.8-4.1C0.5,187.7,0.3,183,0.3,178.2z"/>
		<path class="st2" d="M252.5,18.1c40.3,33.2,63.6,82.7,63.6,135c0,96.6-78.3,175-174.9,175c-26.9,0-53.4-6.2-77.4-18.1
			c31.3,25.9,70.7,40.1,111.3,40c96.6,0,174.9-78.3,174.9-175C350,108.4,312.2,47.6,252.5,18.1z"/>
	</g>
</g>
</svg>
