<?xml version="1.0" encoding="utf-8"?>
<!-- Generator: Adobe Illustrator 22.1.0, SVG Export Plug-In . SVG Version: 6.00 Build 0)  -->
<svg version="1.1" id="Layer_1" xmlns="http://www.w3.org/2000/svg" xmlns:xlink="http://www.w3.org/1999/xlink" x="0px" y="0px"
	 viewBox="0 0 350 350" style="enable-background:new 0 0 350 350;" xml:space="preserve">
<style type="text/css">
	.st0{opacity:0.86;}
	.st1{fill:#B395FF;}
	.st2{fill:#AE7CFF;}
	.st3{fill:#A182FF;}
	.st4{opacity:0.35;enable-background:new    ;}
</style>
<title>neptunus</title>
<g>
	<g id="Layer_1_1_">
		<g class="st0">
			<path class="st1" d="M350,175c0,4.8-0.2,9.5-0.6,14.1c-23.5,20.3-49.6,38.1-75.5,55.3l-143.4,95.4c-1.6,1-3.1,2-4.6,3.1
				c-3.2-1-6.5-2-9.8-3.1c35.2-22.1,70.3-44.4,102-71.4c-41.7,21.7-83.6,43.3-127.5,59.8c-4.1-2.3-8.2-4.7-12.1-7.3
				c42.5-23.4,85.3-46.4,128.3-68.9c45.6-24,92.3-48.1,128.4-84.7c4.6-4.7,9.1-9.7,13.4-14.7C349.5,160,350,167.5,350,175z"/>
			<path class="st2" d="M345.9,137.8c1.1,4.9,1.9,9.8,2.5,14.7c-4.3,5-8.7,10-13.4,14.7C299,203.9,252.3,228,206.6,252
				c-43,22.5-85.8,45.5-128.3,68.9c-5.7-3.8-11.2-8-16.5-12.5c10.8-5.8,21.5-12,32.7-16.9c22.3-10,47-15.5,66.1-30.8
				c5.9-4.7,11.2-10.2,17.6-14.3c6.4-4,13.9-6.5,20.9-9.7c11.3-5.2,21.3-12.9,31.2-20.4c6.1-4.6,13-11.4,10.5-18.7
				c-1.9-5.5-8.7-8-14.5-6.9c-5.7,1.1-10.6,4.6-15.4,7.9c-19.1,13-40.9,23.6-64,23.1c-1.9-0.1-4-0.3-5.2-1.8c-1.8-2.5,0.6-6,3.1-8
				c12.5-10.4,28.4-15.7,43.4-21.8c52.8-21.6,99.4-55.3,145-89.9c2.8,6,5.3,12.1,7.4,18.3c-5.2,3.3-9.9,7.2-14.3,11.5
				c-4.6,4.9-8.6,10.6-13.9,14.7c-5.2,3.9-11.6,6.3-16.7,10.3c-1.6,1.3-3.1,2.9-3.4,5c-0.3,2.9,2.4,5.5,5.3,6.1s5.8-0.5,8.6-1.6
				C321,158.5,333.9,148.6,345.9,137.8z"/>
			<path class="st2" d="M349.3,189.1c-0.7,9.1-2.2,18.2-4.3,27.1c-10.1,9.6-20.8,18.6-32.1,26.8c-6.1,4.5-13.2,10-12.8,17.6
				c0,0.6,0.1,1.3,0.4,1.8c1.2,2.4,4.9,1.6,7.4,0.6c7.4-3.1,15-5.8,22.7-8c-24.3,47.1-68.5,80.7-120.4,91.4
				c15-12,30.6-23.2,47.7-32.1c6.4-3.3,13.1-6.4,18.1-11.5c5.2-5.5,8-12.8,8-20.3c0-3.3-0.6-6.5-1.7-9.5c-0.2-0.9-0.7-1.7-1.4-2.3
				c-1.2-0.8-2.8-0.4-4.1,0.1c-48.7,15.6-85.4,59-135,71.4l-0.9,4.5c-5.1-1-10.2-2.3-15.2-3.7c1.6-1,3.1-2,4.6-3.1l143.4-95.4
				C299.7,227.2,325.8,209.4,349.3,189.1z"/>
			<path class="st1" d="M340.6,118.4c2.1,6.4,3.9,12.8,5.4,19.4c-12.1,10.8-24.9,20.6-39.8,26.6c-2.8,1.1-5.7,2.1-8.6,1.6
				s-5.6-3.2-5.3-6.1c0.2-2.1,1.8-3.7,3.4-5c5.1-4,11.5-6.4,16.7-10.3c5.4-4.1,9.3-9.8,13.9-14.7
				C330.6,125.6,335.4,121.7,340.6,118.4z"/>
			<path class="st1" d="M345,216.2c-3.3,13.5-8.2,26.5-14.5,38.9c-7.7,2.2-15.3,4.9-22.7,8c-2.5,1-6.2,1.8-7.4-0.6
				c-0.3-0.6-0.4-1.2-0.4-1.8c-0.3-7.6,6.7-13.1,12.8-17.6C324.2,234.8,334.9,225.9,345,216.2z"/>
			<path class="st1" d="M322.9,81.5c3.7,6,7.2,12.2,10.2,18.6c-45.5,34.6-92.1,68.3-144.9,89.9c-15,6.1-30.9,11.4-43.4,21.8
				c-2.4,2-4.9,5.4-3.1,8c1.2,1.5,3.3,1.7,5.2,1.8c23.1,0.5,44.9-10.1,64-23.1c4.8-3.3,9.7-6.9,15.4-7.9c5.8-1,12.6,1.4,14.5,6.9
				c2.5,7.3-4.3,14-10.5,18.7c-9.9,7.6-19.9,15.2-31.2,20.4c-7,3.2-14.4,5.6-20.9,9.7c-6.5,4.1-11.7,9.6-17.6,14.3
				c-19.1,15.3-43.8,20.8-66.1,30.8c-11.2,5-21.9,11.2-32.7,16.9c-17.3-14.7-31.7-32.6-42.1-52.7c53.2-20.6,105.3-43.9,156-70.1
				C229.3,158,282.8,125.7,322.9,81.5z"/>
			<path class="st2" d="M311.5,65.6c4.1,5.1,7.9,10.4,11.4,15.9c-40.1,44.1-93.6,76.4-147.1,104.1c-50.7,26.1-102.8,49.5-156,70.1
				c-1.9-3.6-3.6-7.3-5.3-11.1c24.7-8.2,50.2-15,73.2-26.7c8.7-4.5,17-9.6,25.4-14.5c4.3-1.9,8.5-4.2,12.5-6.7
				c-4.2,2-8.3,4.3-12.5,6.7c-14.7,6.9-30.6,11-46.5,14.7c-19.1,4.4-38.4,8.4-57.7,11.8c-2.2-6.7-4-13.6-5.4-20.5
				c27.8-9.7,57-15.3,85.6-22.3c45.2-11,89.7-26.1,130.6-48.5C254.1,119.7,285.9,95.3,311.5,65.6z"/>
			<path class="st1" d="M293.5,46.3c6.5,6,12.5,12.4,18,19.3c-25.6,29.7-57.3,54.1-91.8,72.9C178.8,160.9,134.3,175.9,89,187
				c-28.6,7-57.8,12.7-85.6,22.4l-1.4-8c3.6-0.8,7.2-1.5,10.8-2.3c41.8-8.9,82.6-22,121.9-39.1c-30.1,5.6-60.2,11.2-90.3,16.7
				c-14.7,2.8-29.5,5.6-43.9,9.9c-0.3-3.8-0.5-7.6-0.5-11.5c0-0.4,0.1-0.8,0.1-1.3c7.5-1.6,15-3.6,22.4-5.6
				c51.2-13.9,102.6-27.9,151.4-48.5C217.2,101.5,258.7,77.8,293.5,46.3z"/>
			<path class="st1" d="M282.3,272.9c1.1,3.1,1.7,6.3,1.7,9.5c0,7.6-2.8,14.8-8,20.3c-5,5.1-11.7,8.2-18.1,11.5
				c-17.1,8.9-32.8,20.1-47.7,32.1c-22.8,4.7-46.3,4.7-69.2,0.2l0.9-4.5c49.6-12.4,86.3-55.8,135-71.4c1.3-0.5,2.9-0.9,4.1-0.1
				C281.6,271.3,282.1,272.1,282.3,272.9z"/>
			<path class="st3" d="M270,28.1c8.4,5.4,16.2,11.5,23.6,18.2c-34.8,31.4-76.3,55.2-119.7,73.4C125,140.3,73.7,154.3,22.5,168.1
				c-7.4,2.1-14.9,4-22.4,5.6c0-6.9,0.5-13.9,1.3-20.7c53.4-7.4,105-26,152.9-50.9C195.1,81,233.2,55.5,270,28.1z"/>
			<path class="st2" d="M234.2,10.3c12.6,4.5,24.6,10.5,35.8,17.8c-36.8,27.3-74.9,52.9-115.6,74C106.5,127,54.9,145.6,1.4,153
				c0.4-3,0.9-6,1.4-8.9c55.6-9.1,107.9-32.2,152-67.2c-47.7,19.5-96.1,39.2-147.1,46.5c1.6-5.2,3.4-10.2,5.4-15.1
				C92.5,90.2,167.6,56.9,234.2,10.3z"/>
			<path class="st1" d="M209,3.4c8.6,1.7,17,4,25.2,6.9C167.6,56.9,92.5,90.2,13.3,108.3c3.2-7.8,7-15.3,11.3-22.5
				C41.9,80,59.2,74.2,76.4,68.5c13.5-4.4,27.1-9,40.2-14.5c14.3-6,28-13.3,41.6-20.8C175.4,23.6,192.3,13.7,209,3.4z"/>
			<path class="st2" d="M183.3,0.2c8.7,0.4,17.3,1.5,25.8,3.2c-16.7,10.3-33.6,20.2-50.8,29.8C144.7,40.6,130.9,48,116.6,54
				C103.5,59.5,90,64,76.4,68.5C59.2,74.2,41.9,80,24.5,85.7c4.6-7.7,9.7-15.1,15.4-22c9.4-2.8,18.4-8.4,27.5-12.1
				C76,48,85.1,46.1,94,43.5C125.9,34.3,155,17.8,183.3,0.2z"/>
			<path class="st2" d="M175,0c2.8,0,5.6,0.1,8.3,0.2C155,17.8,125.9,34.3,94,43.5c-8.9,2.6-18,4.6-26.5,8.1
				c-9.1,3.8-18.1,9.3-27.5,12.1C73.2,23.3,122.7,0,175,0z"/>
			<path class="st1" d="M44.4,176.7c30.1-5.6,60.2-11.2,90.3-16.7c-39.2,17-80,30.1-121.9,39.1c-3.5,0.8-7.2,1.5-10.8,2.3
				c-0.7-4.9-1.2-9.9-1.5-14.8C14.8,182.3,29.6,179.4,44.4,176.7z"/>
			<path class="st2" d="M217.9,268.4c-31.6,27-66.7,49.3-102,71.4c-8.8-3.2-17.4-7-25.6-11.6C134.3,311.6,176.2,290,217.9,268.4z"/>
			<path class="st1" d="M7.8,123.4c51-7.3,99.3-27,147.1-46.5c-44.1,35-96.4,58.1-152,67.2C4.1,137.1,5.7,130.2,7.8,123.4z"/>
			<path class="st1" d="M113,203.4c-8.4,4.9-16.8,10-25.4,14.5c-23,11.7-48.5,18.5-73.2,26.7c-2-4.8-3.9-9.7-5.6-14.7
				c19.4-3.5,38.6-7.4,57.7-11.8C82.4,214.3,98.4,210.2,113,203.4z"/>
		</g>
		<path class="st4" d="M252.5,18c74.5,61.5,85.1,171.8,23.6,246.4c-51.7,62.6-139.6,81.5-212.4,45.5c74.5,61.5,184.8,51,246.3-23.6
			S360.9,101.5,286.4,40C276,31.4,264.6,24,252.5,18z"/>
	</g>
</g>
</svg>
