<svg xmlns="http://www.w3.org/2000/svg" xmlns:xlink="http://www.w3.org/1999/xlink" viewBox="0 0 1000 299.72"><defs><linearGradient id="linear-gradient" x1="503.94" y1="549.76" x2="518.74" y2="467.92" gradientUnits="userSpaceOnUse"><stop offset="0" stop-opacity="0"/><stop offset="1"/></linearGradient></defs><title>rocketlogo</title><g style="isolation:isolate"><g id="Layer_1" data-name="Layer 1"><path d="M136,527c5.93,7.7,10.37,14.52,10.37,24.59,0,22.23-16.89,33.5-37.34,33.5H43.86c-11.26,0-21-2.08-29.93-9.49C5.93,569,0,558.36,0,548c0-9.49,5.33-17.79,15.71-17.79,8.59,0,13.93,7.12,13.93,15.12,0,8.89,4.74,10.08,13,10.08H107c2.37,0,9.78.89,9.78-3.56,0-2.37-4.15-6.82-5.34-8.59L9.78,412.54c-6.22-8-9.78-13.93-9.78-24.3,0-11.86,5.63-21.94,15.71-28.46,8.3-5.33,15.11-5.33,24.6-5.33h62.83c11.26,0,20.75,2.37,29.34,9.78,7.71,6.82,13.93,17.78,13.93,28.16,0,9.48-4.74,17.19-15.41,17.19-8.89,0-14.22-5.63-14.22-13.93,0-10.08-5-11.56-14.23-11.56H39.72c-3.26,0-10.08-.89-10.08,4.15,0,2.67,3.26,6.22,4.44,8Z" transform="translate(0 -335.2)" style="fill:#fff"/><path d="M243,570.22c0,9.48-4.14,14.82-14.81,14.82s-14.82-5.34-14.82-14.82V354.45h98.4c13.63,0,23.41,2.07,34.08,12.15,12.74,11.86,13.93,22.82,13.93,38.83v40.31c0,15.11-1.19,25.78-12.15,37.93-11.56,13-23.71,14.23-39.72,14.23H243Zm0-102h65.8c17.49,0,21.34-4.44,21.34-21.34V405.43c0-16.9-3.85-21.34-21.34-21.34H243Z" transform="translate(0 -335.2)" style="fill:#fff"/><path d="M719.92,585c-22.23,0-35-8.9-44.46-28.16l-27.27-55.13c-5-10.07-8-19.56-8-31.12,0-13,2.37-21,8.3-32.9l27.27-54.83c10.07-20.45,22.82-28.45,45.64-28.45h50.38c6.52,0,14.82,3.56,14.82,14.82,0,10.67-8,14.82-14.82,14.82H722.29c-12.75,0-14.82,1.18-20.45,12.45l-25.79,51.57c-3.85,8-6.22,13.33-6.22,22.52,0,8.3,2.66,13.34,6.22,20.45l25.19,51.28c5.93,12.15,8.9,13,22.23,13h48.31c6.52,0,14.82,3.55,14.82,14.82,0,10.67-8,14.82-14.82,14.82Z" transform="translate(0 -335.2)" style="fill:#fff"/><path d="M985.18,555.4c7.71,0,14.82,4.15,14.82,14.82S992.89,585,985.18,585H853.59V354.45H985.18c7.71,0,14.82,4.15,14.82,14.82s-7.11,14.82-14.82,14.82h-102v70.83h43.57c7.71,0,14.82,4.15,14.82,14.82s-7.11,14.82-14.82,14.82H883.22V555.4Z" transform="translate(0 -335.2)" style="fill:#fff"/><path d="M497.46,335.2c34.23,0,69.68,55.18,69.68,114.55,0,45.82-9,89.14-13.15,106.53a10.43,10.43,0,0,1-10.16,8H451.25a10.43,10.43,0,0,1-10.2-8.2C437,537.6,427.77,491,427.77,449.75,427.77,396.92,463.23,335.2,497.46,335.2Z" transform="translate(0 -335.2)" style="fill:#c6e4ff"/><line x1="497.46" y1="142.77" x2="566.03" y2="142.77" style="fill:none;stroke:#000;stroke-miterlimit:10;stroke-width:0.5px"/><line x1="465.1" y1="128.94" x2="497.46" y2="128.94" style="fill:none;stroke:#000;stroke-miterlimit:10;stroke-width:0.5px"/><path d="M497.46,335.2a30.2,30.2,0,0,0-6.79.8c31.84,6.91,62.53,58.51,62.53,113.75C553.2,509.12,538,564.3,538,564.3H552s15.16-55.18,15.16-114.55S531.69,335.2,497.46,335.2Z" transform="translate(0 -335.2)" style="opacity:0.39;mix-blend-mode:overlay;fill:url(#linear-gradient)"/><path d="M553.47,531.34s40.83-3.62,46.1,13.17-23.05,77.06-23.05,77.06c.22.29-1.81-58.21-14.74-62.59-11.06-3.75-15.14-4.72-14.9-4.92C547.12,546.17,550,538.71,553.47,531.34Z" transform="translate(0 -335.2)" style="fill:#ffb051"/><path d="M599.57,544.51c-5.27-16.79-46.1-13.17-46.1-13.17l-.29.62c8.23-.47,39.55-1.26,44.12,13.31,4.38,13.93-14.37,57.78-20.89,72.32.12,2.53.14,4,.11,4S604.84,561.31,599.57,544.51Z" transform="translate(0 -335.2)" style="fill:#ffb051;opacity:0.35000000000000003;mix-blend-mode:multiply"/><line x1="497.46" x2="497.46" y2="229.09" style="fill:none;stroke:#000;stroke-miterlimit:10"/><path d="M444.53,531.34s-40.83-3.62-46.1,13.17,23.05,77.06,23.05,77.06c-.22.29,1.81-58.21,14.74-62.59,11.06-3.75,15.14-4.72,14.9-4.92C450.88,546.17,448,538.71,444.53,531.34Z" transform="translate(0 -335.2)" style="fill:#ffb051"/><path d="M421.52,619.26c-5.75-12.69-26.11-59.38-21.58-73.84,4.75-15.13,38.37-13.69,45-13.26-.12-.27-.25-.55-.38-.82,0,0-40.83-3.62-46.1,13.17s23.05,77.06,23.05,77.06S421.46,620.76,421.52,619.26Z" transform="translate(0 -335.2)" style="fill:#ffb051;opacity:0.35000000000000003;mix-blend-mode:multiply"/><circle cx="497.46" cy="90.91" r="14.66" style="fill:#c5ffee"/><circle cx="493.54" cy="86.82" r="13.64" style="fill:#b9ffe4;mix-blend-mode:screen"/><circle cx="493.54" cy="83.72" r="5.75" style="fill:#fff;mix-blend-mode:screen"/><circle cx="497.46" cy="100.46" r="8.86" style="fill:#fff;opacity:0.46;mix-blend-mode:hard-light"/><path d="M497.46,449.22a23.11,23.11,0,1,1,23.11-23.11A23.14,23.14,0,0,1,497.46,449.22Zm0-37.76a14.66,14.66,0,1,0,14.65,14.65A14.67,14.67,0,0,0,497.46,411.46Z" transform="translate(0 -335.2)" style="fill:#ffc04c"/><path d="M504.9,404.24a23.11,23.11,0,0,1-10.77,43.55,22.86,22.86,0,0,1-7.44-1.24,22.84,22.84,0,0,0,10.77,2.67,23.1,23.1,0,0,0,7.44-45Z" transform="translate(0 -335.2)" style="fill:#ffc04c;opacity:0.36;mix-blend-mode:multiply"/><circle cx="493.16" cy="143.62" r="1.76" style="fill:none;stroke:#000;stroke-miterlimit:10"/><circle cx="501.05" cy="165.12" r="1.76" style="fill:none;stroke:#000;stroke-miterlimit:10"/><circle cx="501.05" cy="165.12" r="0.97"/><circle cx="493.16" cy="143.62" r="0.97"/><polygon points="517.46 229.09 517.12 229.09 507.8 229.09 497.62 229.09 487.12 229.09 478.12 229.09 477.45 229.09 467.8 229.09 472.63 248.85 477.45 268.62 479.5 260.27 483.45 276.47 485.5 268.12 489.45 284.31 491.5 275.96 495.45 292.16 495.53 291.85 497.45 299.72 499.38 291.85 499.45 292.16 503.41 275.96 505.45 284.31 509.41 268.12 511.45 276.47 515.41 260.27 517.46 268.62 522.28 248.85 527.12 229.09 517.46 229.09" style="fill:#ff4000"/><polygon points="511.05 229.2 510.77 229.2 510.82 229.09 497.56 229.09 484.31 229.09 484.36 229.2 483.86 229.2 477.3 229.2 480.58 242.63 483.86 256.06 485.25 250.38 487.94 261.39 489.33 255.72 492.02 266.73 493.4 261.05 496.1 272.06 496.42 270.75 497.45 274.99 498.49 270.75 498.81 272.06 501.51 261.05 502.89 266.73 505.58 255.72 506.97 261.39 509.66 250.38 511.05 256.06 514.33 242.63 517.62 229.2 511.05 229.2" style="fill:#ff6f00"/><polygon points="506.68 229.16 506.49 229.16 506.52 229.09 497.53 229.09 488.54 229.09 488.57 229.16 488.23 229.16 483.78 229.16 486.01 238.28 488.23 247.39 489.17 243.54 491 251.01 491.94 247.16 493.77 254.63 494.71 250.78 496.53 258.25 496.75 257.35 497.45 260.23 498.16 257.35 498.38 258.25 500.2 250.78 501.14 254.63 502.97 247.16 503.91 251.01 505.74 243.54 506.68 247.39 508.9 238.28 511.13 229.16 506.68 229.16" style="fill:#ffca00"/></g></g></svg>