<?xml version="1.0" encoding="utf-8"?>
<!-- Generator: Adobe Illustrator 22.1.0, SVG Export Plug-In . SVG Version: 6.00 Build 0)  -->
<svg version="1.1" id="Layer_1" xmlns="http://www.w3.org/2000/svg" xmlns:xlink="http://www.w3.org/1999/xlink" x="0px" y="0px"
	 viewBox="0 0 406 300" style="enable-background:new 0 0 406 300;" xml:space="preserve">
<style type="text/css">
	.st0{fill:#D3BC78;}
	.st1{opacity:0.51;fill:#E4D59A;enable-background:new    ;}
	.st2{opacity:0.35;enable-background:new    ;}
	.st3{fill:#E4D59A;}
	.st4{clip-path:url(#SVGID_2_);fill:url(#SVGID_3_);}
	.st5{clip-path:url(#SVGID_2_);fill:url(#SVGID_4_);}
	.st6{clip-path:url(#SVGID_6_);}
	.st7{fill:url(#SVGID_7_);}
	.st8{fill:url(#SVGID_8_);}
</style>
<title>saturnus</title>
<g>
	<g id="Layer_1_1_">
		<ellipse class="st0" cx="202.9" cy="150.3" rx="121" ry="150"/>
		<path class="st1" d="M232.9,285.1c9.5-4,19.2-8.1,27.4-15.3c8.2-7.2,15-18.1,15.9-30.5c0.1-1,0-2.2-0.6-2.7
			c-0.5-0.3-1-0.4-1.6-0.3c-38.9,4.8-72.4,41.8-111.5,41.6c8.9-9.7,19.2-17.1,30.4-21.9c7.2-3.1,14.9-5.2,20.7-11.3
			c3.9-4.1,6.7-9.9,11.2-12.9c2-1.3,4.4-2,6.2-3.7c1.9-1.7,3.3-4.8,2.3-7.4c-1.3-3.4-5.2-3.2-8.1-2.5c-29.8,7.7-58.7,20.1-85.9,36.9
			c-4.7,2.9-9.3,6-13.1,10.3c20,20.7,44.8,32.9,70.8,34.6c1.6-0.7,3.2-1.4,4.8-2.1L232.9,285.1z"/>
		<path class="st1" d="M149,28.8c2.2-1.2,4.1-3.4,6.2-4.9c9.4-7,22.1-3,31.7-9.5c2.8-2.1,5.4-4.6,7.7-7.4l5.7-6.6
			c-24.8,1.4-48.6,12.3-68.1,31.2c3.1-0.2,6.1-0.5,9.2-0.8C144,30.7,146.6,30,149,28.8z"/>
		<path class="st1" d="M180.1,50.2c15-3.8,28.2-14.5,42.4-21.4c-5.8,2.3-11.7,4.5-17.5,6.7L180,44.7c-6.6,2.5-13.3,4.9-20.1,5.8
			c-8.4,1.1-16.8-0.1-25.2-0.5c-7.2-0.3-14.5-0.2-21.7,0.4c-2.9,5.4-5.6,10.9-8,16.7c11-1.5,21.1-8.7,31.9-11.8
			C150.9,51.2,165.8,53.9,180.1,50.2z"/>
		<path class="st1" d="M198.9,182.6c-13.4,9.1-29,11.6-43.5,17.8c5.6-2.9,11.3-6,16.8-9l23.8-13.1c6.3-3.5,12.7-7,18.4-11.8
			c7-5.9,12.7-13.6,18.9-20.6c5.4-6.1,10.9-11.8,16.8-17.1c5.1,1.7,10,3.8,14.9,6.3c-9.2,7.7-20.6,10.4-30.5,16.6
			C221.6,159.8,211.6,173.9,198.9,182.6z"/>
		<path class="st1" d="M272.9,160.7c-5.1,3.4-10.5,7.1-13,13.6c12.4-0.6,24.7-3.7,36.4-9.3l-31.9,19.3c-2.1,1.2-4.5,3.7-3.5,6.3
			c13.8,2.5,25.9-10,38.8-16.6c6.9-3.5,14.2-5.5,21.1-8.9c0.8-0.4,1.6-0.9,2.4-1.3c0.4-4.9,0.6-10,0.6-15.1c0-6.9-0.5-13.9-1.3-20.7
			c-2.8,1.8-5.5,3.5-8.2,5.3L272.9,160.7z"/>
		<path class="st1" d="M111.1,185.1c16.5-6.1,31.4-17.1,47.3-25.4c5.4-2.8,11-5.3,16.5-7.8l23.7-10.7c5.3-2.4,10.6-4.8,16-6.9
			c5.1-2,10.4-3.7,15.3-6.4c17.5-9.2,30.3-28.4,46.7-40.5c3.6-2.7,7.7-5.3,9.4-10.1c2.4-6.8-1.5-15-7-18.1
			c-5.5-3.1-11.8-2.2-17.6-0.5c-2.7,0.8-5.4,1.7-8.2,1.2s-5.4-3-5.7-6.4c-0.2-3.1,1.6-5.7,3.4-7.8c7.4-8.4,17.1-13,27.1-13
			c-4.7-4.6-9.7-8.7-14.9-12.4c-11.1,10.4-25.6,14.3-39.3,19.5c-3.4,1.5-6.8,3-10.2,4.3c-14.2,6.9-27.4,17.6-42.4,21.4
			c-14.2,3.6-29.1,0.9-43.2,5c-10.8,3.2-20.9,10.3-31.9,11.8c-3.5,8.4-6.3,17.2-8.5,26.2c11-3.4,20.7-14.1,31.9-18.1
			c5.2-1.9,10.6-2.2,16-3.4c14.6-3.1,27.8-12.1,41.7-18.3c10.4-4.7,21.2-7.9,32.2-9.6c1-0.2,2.3-0.2,3,0.8c0.4,0.8,0.5,1.8,0.3,2.7
			c-1,8.7-7.6,14.4-13.8,18.7c-10.9,7.7-22.1,14.5-33.7,20.3c-8.1,4.1-16.6,8-22.4,16.1c3.7,1.7,7.8,1.1,11.8,0.4
			c10.9-1.9,21.9-3.9,31.6-10.5c5.1-3.5,9.7-8.2,14.6-12.1c11-8.6,23.6-12.9,36.1-17.2c4.8-1.6,10.7-2.9,14,1.7
			c2.4,3.4,2.1,8.8,0.2,12.7c-1.9,3.9-5,6.6-8.1,9.1c-31.4,25.3-67.6,39.3-103.4,53.2l-22.2,8.5l-32.9,12.6c1,7.5,2.5,15,4.5,22.3
			c3.2-3.3,6.7-6.2,10.4-8.7C103.2,187.7,107.2,186.6,111.1,185.1z"/>
		<path class="st2" d="M256.5,15.8C308,68.6,315.3,163.1,272.8,227c-35.7,53.6-96.5,69.8-146.9,39c51.5,52.7,127.8,43.7,170.4-20.2
			S331.5,87.4,280,34.7C272.8,27.3,264.9,21,256.5,15.8L256.5,15.8z"/>
		<path id="_Clipping_Path_3" class="st3" d="M404.9,88.4c-5.6-28.5-49.7-41.6-110.9-37.6c3.6,5,7,10.4,10,16.1l0,0
			c37.5,1.3,63.2,12.1,67.1,31.7c7.1,36.1-62.3,88.1-155.1,116.3S42.1,236.8,35,200.7c-3.9-19.6,15-44,47.8-66.6
			c0.5-6.7,1.4-13.4,2.7-20c-55.8,31.5-90,68.4-84.4,96.9c8.6,43.3,105.9,51,217.4,17.2S413.5,131.8,404.9,88.4z"/>
		<g>
			<defs>
				<path id="SVGID_1_" d="M404.9,88.4c-5.6-28.5-49.7-41.6-110.9-37.6c3.6,5,7,10.4,10,16.1l0,0c37.5,1.3,63.2,12.1,67.1,31.7
					c7.1,36.1-62.3,88.1-155.1,116.3S42.1,236.8,35,200.7c-3.9-19.6,15-44,47.8-66.6c0.5-6.7,1.4-13.4,2.7-20
					c-55.8,31.5-90,68.4-84.4,96.9c8.6,43.3,105.9,51,217.4,17.2S413.5,131.8,404.9,88.4z"/>
			</defs>
			<clipPath id="SVGID_2_">
				<use xlink:href="#SVGID_1_"  style="overflow:visible;"/>
			</clipPath>
			<linearGradient id="SVGID_3_" gradientUnits="userSpaceOnUse" x1="37.5102" y1="155.4468" x2="87.5102" y2="126.4468">
				<stop  offset="0" style="stop-color:#0075BE;stop-opacity:0"/>
				<stop  offset="5.000000e-02" style="stop-color:#0068A8;stop-opacity:0.11"/>
				<stop  offset="1" style="stop-color:#000000"/>
			</linearGradient>
			<polyline class="st4" points="86.2,113.8 20.1,150.7 52.8,161.4 95.6,127.6 85.5,114.1 			"/>
			<linearGradient id="SVGID_4_" gradientUnits="userSpaceOnUse" x1="326.7903" y1="60.6627" x2="295.1236" y2="52.8293">
				<stop  offset="0" style="stop-color:#0075BE;stop-opacity:0"/>
				<stop  offset="5.000000e-02" style="stop-color:#0068A8;stop-opacity:0.11"/>
				<stop  offset="1" style="stop-color:#000000"/>
			</linearGradient>
			<polygon class="st5" points="293.2,51.2 317.2,44.5 332.2,68.2 301.7,68.2 			"/>
		</g>
		<path id="_Clipping_Path_4" class="st3" d="M367.3,99.8c-3.7-18.5-27.5-29.1-62.4-30.9c1.5,2.9,2.9,5.9,4.2,8.9l0,0
			c23.9,3.4,39.8,12.4,42.6,26.7c2.8,14.3-7.9,31.3-27.8,48l0,0c-0.9,0.7-1.8,1.4-2.7,2.2l-0.7,0.6c-1.2,0.9-2.4,1.9-3.6,2.8
			l-1.2,0.9c-1.2,0.9-2.3,1.7-3.5,2.6l-1.6,1.1c-1.1,0.8-2.3,1.6-3.5,2.4l-1.9,1.2c-1.1,0.7-2.3,1.5-3.5,2.2l-2.3,1.5
			c-1.1,0.7-2.2,1.4-3.4,2.1l-2.6,1.6l-3.4,2l-3.2,1.8c-2,1.1-4,2.2-6.1,3.3c-1,0.5-2.1,1.1-3.2,1.6l-3.7,1.8c-1,0.5-1.9,1-2.9,1.4
			c-1.4,0.7-2.8,1.3-4.2,2l-2.6,1.2c-1.6,0.7-3.1,1.4-4.7,2.1l-2.1,0.9c-1.8,0.8-3.6,1.5-5.4,2.3l-1.3,0.6c-2.1,0.8-4.2,1.7-6.4,2.6
			h-0.1c-9.5,3.7-19.4,7.2-29.6,10.3c-12.9,3.9-25.4,7-37.6,9.4h-0.1c-2.3,0.5-4.6,0.9-6.9,1.3l-0.8,0.1c-2.1,0.4-4.2,0.7-6.2,1
			l-1.4,0.2c-1.9,0.3-3.8,0.6-5.7,0.8l-1.8,0.3c-1.8,0.2-3.5,0.5-5.2,0.6l-2.1,0.2c-2.1,0.2-4.2,0.4-6.2,0.6
			c-1.7,0.1-3.5,0.3-5.2,0.4l-2,0.1c-1.6,0.1-3.3,0.2-4.9,0.2h-1.8c-1.7,0-3.3,0.1-4.9,0.1h-1.5c-1.7,0-3.4,0-5,0h-1.2
			c-1.8-0.1-3.5-0.1-5.2-0.2h-0.8c-1.9-0.1-3.7-0.3-5.5-0.5h-0.2c-27.1-2.7-45.2-12-48.3-27.4c-2.8-14.2,7.9-31.3,27.9-48.1v-0.1
			c0-3.5,0.2-6.9,0.5-10.3l0,0c-30.4,21.6-47.6,44.6-43.9,63.2c7,35.3,86.2,41.5,177,14S374.3,135.1,367.3,99.8z"/>
		<g>
			<defs>
				<path id="SVGID_5_" d="M367.3,99.8c-3.7-18.5-27.5-29.1-62.4-30.9c1.5,2.9,2.9,5.9,4.2,8.9l0,0c23.9,3.4,39.8,12.4,42.6,26.7
					c2.8,14.3-7.9,31.3-27.8,48l0,0c-0.9,0.7-1.8,1.4-2.7,2.2l-0.7,0.6c-1.2,0.9-2.4,1.9-3.6,2.8l-1.2,0.9c-1.2,0.9-2.3,1.7-3.5,2.6
					l-1.6,1.1c-1.1,0.8-2.3,1.6-3.5,2.4l-1.9,1.2c-1.1,0.7-2.3,1.5-3.5,2.2l-2.3,1.5c-1.1,0.7-2.2,1.4-3.4,2.1l-2.6,1.6l-3.4,2
					l-3.2,1.8c-2,1.1-4,2.2-6.1,3.3c-1,0.5-2.1,1.1-3.2,1.6l-3.7,1.8c-1,0.5-1.9,1-2.9,1.4c-1.4,0.7-2.8,1.3-4.2,2l-2.6,1.2
					c-1.6,0.7-3.1,1.4-4.7,2.1l-2.1,0.9c-1.8,0.8-3.6,1.5-5.4,2.3l-1.3,0.6c-2.1,0.8-4.2,1.7-6.4,2.6h-0.1
					c-9.5,3.7-19.4,7.2-29.6,10.3c-12.9,3.9-25.4,7-37.6,9.4h-0.1c-2.3,0.5-4.6,0.9-6.9,1.3l-0.8,0.1c-2.1,0.4-4.2,0.7-6.2,1
					l-1.4,0.2c-1.9,0.3-3.8,0.6-5.7,0.8l-1.8,0.3c-1.8,0.2-3.5,0.5-5.2,0.6l-2.1,0.2c-2.1,0.2-4.2,0.4-6.2,0.6
					c-1.7,0.1-3.5,0.3-5.2,0.4l-2,0.1c-1.6,0.1-3.3,0.2-4.9,0.2h-1.8c-1.7,0-3.3,0.1-4.9,0.1h-1.5c-1.7,0-3.4,0-5,0h-1.2
					c-1.8-0.1-3.5-0.1-5.2-0.2h-0.8c-1.9-0.1-3.7-0.3-5.5-0.5h-0.2c-27.1-2.7-45.2-12-48.3-27.4c-2.8-14.2,7.9-31.3,27.9-48.1v-0.1
					c0-3.5,0.2-6.9,0.5-10.3l0,0c-30.4,21.6-47.6,44.6-43.9,63.2c7,35.3,86.2,41.5,177,14S374.3,135.1,367.3,99.8z"/>
			</defs>
			<clipPath id="SVGID_6_">
				<use xlink:href="#SVGID_5_"  style="overflow:visible;"/>
			</clipPath>
			<g class="st6">
				
					<linearGradient id="SVGID_7_" gradientUnits="userSpaceOnUse" x1="52.9959" y1="146.0971" x2="83.2421" y2="146.0971" gradientTransform="matrix(1 0 0 -1 0 301.41)">
					<stop  offset="0" style="stop-color:#0075BE;stop-opacity:0"/>
					<stop  offset="0.97" style="stop-color:#000000"/>
					<stop  offset="0.97" style="stop-color:#000000"/>
					<stop  offset="1" style="stop-color:#000000"/>
				</linearGradient>
				<polygon class="st7" points="82.9,136 53,159.6 55.3,172.3 63.3,174.6 83.2,149.8 				"/>
				
					<linearGradient id="SVGID_8_" gradientUnits="userSpaceOnUse" x1="377.6891" y1="94.3011" x2="346.8602" y2="99.6556" gradientTransform="matrix(1 0 0 -1 -47 172.71)">
					<stop  offset="0" style="stop-color:#0075BE;stop-opacity:0"/>
					<stop  offset="5.000000e-02" style="stop-color:#0068A8;stop-opacity:0.11"/>
					<stop  offset="1" style="stop-color:#000000"/>
				</linearGradient>
				<path class="st8" d="M302.1,68.9c0,0,24.3,2.1,24.9,2.3s6.5,14.4,6.5,14.4l-24.9-6.3L302.1,68.9z"/>
			</g>
		</g>
	</g>
</g>
</svg>
