<?xml version="1.0" encoding="utf-8"?>
<!-- Generator: Adobe Illustrator 22.1.0, SVG Export Plug-In . SVG Version: 6.00 Build 0)  -->
<svg version="1.1" id="Layer_1" xmlns="http://www.w3.org/2000/svg" xmlns:xlink="http://www.w3.org/1999/xlink" x="0px" y="0px"
	 viewBox="0 0 350 350" style="enable-background:new 0 0 350 350;" xml:space="preserve">
<style type="text/css">
	.st0{fill:#BFF6F9;}
	.st1{fill:#62EFF6;}
	.st2{opacity:0.35;enable-background:new    ;}
</style>
<title>uranussvg</title>
<g>
	<g id="Layer_1_1_">
		<path class="st0" d="M349.2,158.3c0.5,5.5,0.8,11.1,0.8,16.7c0,6.8-0.4,13.6-1.2,20.3c-89.3,3.5-178,18.4-267.3,23.8
			c42-4.4,84-8.8,126.1-13.2c16-1.6,32.1-3.3,47.7-7.5c16.3-4.4,31.8-11.5,47.2-18.6C318,172.6,333.6,165.4,349.2,158.3z"/>
		<path class="st1" d="M349.2,158.3c-15.6,7.2-31.1,14.3-46.7,21.5c-15.4,7.1-30.9,14.2-47.2,18.6c-15.6,4.2-31.7,5.9-47.7,7.5
			c-42,4.4-84,8.8-126.1,13.2c89.3-5.4,178-20.3,267.3-23.8c-2.9,25.4-11.3,49.8-24.8,71.5c-90.1-2.4-180.2,0.2-270,7.9
			c-7,0.6-14.1,1.3-21,2.6c-16.1-22.2-26.7-48-30.9-75.1c1.7-0.2,3.4-0.5,5.1-0.9c8.1-1.8,15.8-5.3,23.2-9
			c23.9-12.2,46-27.6,65.6-46c-23.3,0.8-45.2,11.5-68.4,14c-6.1,0.7-12.3,0.8-18.4,2.1c-3.1,0.7-6,1.6-8.9,2.9
			c0.8-13.5,3.1-26.8,6.9-39.8c13-9.8,30.6-11,47-11.4c71.8-2.3,147.1-4.7,208.9-41.2c12-7.1,23.3-15.5,35.8-21.3
			C327.5,80.2,345.3,117.9,349.2,158.3z M289.4,113.4c4.1-1.6,7.8-4.3,10.6-7.8C296.2,107.8,292.6,110.4,289.4,113.4
			c-6.8,2.9-14.8,3.9-22.2,5c-8.5,1.2-82.3,14.4-66.1,33.6c5.7,6.9,31.7-4.9,38.9-7.6c14.7-5.6,28.8-13,40.8-23.2
			C283.6,118.6,286.5,115.9,289.4,113.4z"/>
		<path class="st0" d="M324,266.8c-5.5,9-11.9,17.5-19,25.3c-35.6-1-71.3-5.8-106.5-0.5c-27.1,4.1-53.1,14.2-80.4,17.4
			c-17.6,2.1-35.5,1.3-53.2,2c-12.1-9.8-22.9-21.1-32-33.8c6.9-1.3,14-1.9,21-2.6C143.8,267,233.9,264.3,324,266.8z"/>
		<path class="st0" d="M289.4,113.4c-2.9,2.5-5.8,5.2-8.7,7.7c-12,10.2-26.1,17.7-40.8,23.2c-7.1,2.7-33.1,14.5-38.9,7.6
			c-16.1-19.2,57.6-32.4,66.1-33.6C274.6,117.3,282.6,116.3,289.4,113.4z"/>
		<path class="st0" d="M276.4,32.4c8,5.7,15.5,12,22.5,19c-12.5,5.8-23.9,14.2-35.8,21.3c-61.8,36.6-137.1,39-208.9,41.2
			c-16.4,0.5-34.1,1.7-47,11.4c4-13.5,9.6-26.6,16.8-38.7c29.7-0.8,59.5-1.5,89.3-2.2c7.6,0,15.2-0.5,22.8-1.4
			c11.7-1.8,22.9-5.7,34.1-9.6C205.9,60.7,241.8,48,276.4,32.4z"/>
		<path class="st1" d="M305,292.1c-62.2,69.2-167.7,77.5-240,19c17.7-0.8,35.6,0.1,53.2-2c27.2-3.1,53.3-13.2,80.4-17.4
			C233.7,286.3,269.4,291.1,305,292.1z"/>
		<path class="st1" d="M239.6,12.4c13,5.2,25.4,11.9,36.9,20.1c-34.6,15.5-70.5,28.2-106.3,40.9C159,77.2,147.8,81.2,136,83
			c-7.6,1-15.2,1.5-22.8,1.5c-29.7,0.8-59.5,1.5-89.3,2.2c8-13.7,17.9-26.2,29.3-37.3c59.2,6.1,119-4.2,172.6-30
			C230.4,17.1,235,14.8,239.6,12.4z"/>
		<path class="st0" d="M239.6,12.4c-4.5,2.4-9.1,4.7-13.8,7c-53.7,25.8-113.4,36.1-172.6,30c6.8-6.6,14.1-12.6,21.8-18
			c47.3-4.3,94.1-13.3,139.6-26.8C223.1,6.5,231.5,9.1,239.6,12.4z"/>
		<path class="st1" d="M175,0c13.3,0,26.6,1.5,39.6,4.6C169.1,18.1,122.3,27.1,75,31.4C104.3,10.9,139.2-0.1,175,0z"/>
		<path class="st0" d="M27.6,160.2c23.2-2.5,45.1-13.2,68.4-14c-19.6,18.4-41.7,33.8-65.6,46c-7.4,3.8-15,7.2-23.2,9
			c-1.7,0.4-3.4,0.6-5.1,0.9c-1.4-9-2.1-18-2.1-27.1c0-3.3,0.1-6.6,0.3-9.8c2.9-1.2,5.9-2.2,8.9-2.9
			C15.3,161.1,21.5,160.9,27.6,160.2z"/>
		<path class="st2" d="M252.4,18c74.6,61.5,85.1,171.8,23.6,246.4c-51.7,62.7-139.7,81.5-212.5,45.5
			c74.6,61.5,184.9,50.9,246.4-23.6s50.9-184.9-23.6-246.4C275.9,31.3,264.5,24,252.4,18z"/>
	</g>
</g>
</svg>
