<?xml version="1.0" encoding="utf-8"?>
<!-- Generator: Adobe Illustrator 22.1.0, SVG Export Plug-In . SVG Version: 6.00 Build 0)  -->
<svg version="1.1" id="Layer_1" xmlns="http://www.w3.org/2000/svg" xmlns:xlink="http://www.w3.org/1999/xlink" x="0px" y="0px"
	 viewBox="0 0 350 350" style="enable-background:new 0 0 350 350;" xml:space="preserve">
<style type="text/css">
	.st0{fill:#CAB389;}
	.st1{opacity:0.13;fill:#CAF207;enable-background:new    ;}
	.st2{fill:#D9C6A6;}
	.st3{opacity:0.35;enable-background:new    ;}
</style>
<title>venus</title>
<g>
	<g id="Layer_1_1_">
		<ellipse class="st0" cx="175" cy="175" rx="175" ry="175"/>
		<ellipse class="st1" cx="175" cy="175" rx="175" ry="175"/>
		<path class="st2" d="M266.6,324c-53.6,33-120.9,34.7-176,4.2c19.9-4,40.8-1.9,61.1,0.1c2.1,0.2,5,1.3,4.5,3.4
			c23.9,2.6,48.1,2.9,71.8-1C241,328.7,253.7,325.4,266.6,324z"/>
		<path class="st2" d="M343.8,220.9c-5.2,19.2-13.7,37.4-25.1,53.7c-0.2,0-0.4,0.1-0.6,0.1c-10.2,0.9-20.6-0.1-30.8,1.7
			c-5.4,1.1-10.7,2.5-16,4.2c-24.3,7.1-49.4,10.8-74.7,11.2c-9.9,0.1-19.9-0.2-29.7-2.2c-5.9-1.1-11.7-2.8-17.6-3.7
			c-13.8-2.2-27.9-0.5-41.8,0.6c-22,1.8-44.2,2.2-66.3,1.1C24.9,268.4,13,245.8,6.3,221.5c15.1-1.4,30.5-2.5,45,1.7
			c9.4,2.8,18,7.7,27.3,11c34.9,12.7,73.4,1.1,110.5-1.5c40.3-2.8,81.6,5,121-4.2c10.7-2.5,21.1-6.2,32-7.4L343.8,220.9z"/>
		<path class="st2" d="M347.7,146.9c-5.7-1.5-11.5-2.6-17.3-3.4c-11.9-1.4-23.9,0.2-35.7-1.6c-6.9-1.1-13.6-3.3-20.4-4.8
			c-13-2.9-26.5-3.4-39.7-3.7c-26.7-0.8-53.3-1.5-80-2.3c-8.5-0.3-17.1-0.5-25.4,1.3c-7.1,1.6-13.8,4.5-20.8,6.6
			c-8.1,2.5-16.4,3.9-24.7,5.2c-27.7,4.5-55.3,9-83,13.5C2,145.2,4.7,133,8.6,121.2c1.8-0.2,3.6-0.6,5.4-1.1
			c7.7-2.5,13.4-9.2,20.7-12.8c9.7-4.7,21.1-3.4,31.9-3.3c31.9,0.3,62.8-11.1,94.6-13c25.1-1.6,50.3,2.9,75.4,1
			c14.4-1.1,28.6-4.2,43-3.8c9.5,0.3,18.8,2.1,28.1,3.9c8.1,1.6,16.4,3.3,24.3,5.6C339.7,113.2,345,129.8,347.7,146.9z"/>
		<path class="st2" d="M255.7,19.9c-24.2,0.2-48.5,0.6-72.8,0.9c-7.5,0.1-15.2,0.2-22.4,2.4c-4.7,1.4-9,3.7-13.6,5.2
			c-20.2,6.6-44.3-1.1-62.2,10.3c17.2-10.7,35.5-21.8,55.8-22.4c-13.3-1.2-26.8-1-40.1,0.5C149.8-6.6,207.3-5.5,255.7,19.9z"/>
		<path class="st3" d="M252.5,18.1c40.3,33.2,63.7,82.7,63.6,135c0,96.6-78.4,175-175,175c-26.9,0-53.4-6.2-77.5-18.1
			c31.3,25.9,70.7,40.1,111.4,40c96.7,0,175-78.4,175-175C350,108.4,312.2,47.5,252.5,18.1z"/>
	</g>
</g>
</svg>
